<?xml version="1.0" encoding="UTF-8" standalone="no"?>
<!DOCTYPE svg PUBLIC "-//W3C//DTD SVG 1.1//EN"
 "http://www.w3.org/Graphics/SVG/1.1/DTD/svg11.dtd">
<!-- Generated by graphviz version 2.43.0 (0)
 -->
<!-- Title: sim_graph Pages: 1 -->
<svg width="621pt" height="100pt"
 viewBox="0.00 0.00 621.00 100.00" xmlns="http://www.w3.org/2000/svg" xmlns:xlink="http://www.w3.org/1999/xlink">
<g id="graph0" class="graph" transform="scale(1 1) rotate(0) translate(4 96)">
<title>sim_graph</title>
<polygon fill="white" stroke="transparent" points="-4,4 -4,-96 617,-96 617,4 -4,4"/>
<!-- N0 -->
<g id="node1" class="node">
<title>N0</title>
<path fill="white" stroke="black" d="M12,-27.5C12,-27.5 226,-27.5 226,-27.5 232,-27.5 238,-33.5 238,-39.5 238,-39.5 238,-51.5 238,-51.5 238,-57.5 232,-63.5 226,-63.5 226,-63.5 12,-63.5 12,-63.5 6,-63.5 0,-57.5 0,-51.5 0,-51.5 0,-39.5 0,-39.5 0,-33.5 6,-27.5 12,-27.5"/>
<text text-anchor="middle" x="107.5" y="-42.7" font-family="Times,serif" font-size="11.00">InputBlock.hh=constant_v_and_w_h</text>
<polyline fill="none" stroke="black" points="215,-27.5 215,-63.5 "/>
<text text-anchor="middle" x="226.5" y="-42.7" font-family="Times,serif" font-size="11.00">u</text>
</g>
<!-- N1 -->
<g id="node2" class="node">
<title>N1</title>
<path fill="white" stroke="black" d="M338,-55.5C338,-55.5 601,-55.5 601,-55.5 607,-55.5 613,-61.5 613,-67.5 613,-67.5 613,-79.5 613,-79.5 613,-85.5 607,-91.5 601,-91.5 601,-91.5 338,-91.5 338,-91.5 332,-91.5 326,-85.5 326,-79.5 326,-79.5 326,-67.5 326,-67.5 326,-61.5 332,-55.5 338,-55.5"/>
<text text-anchor="middle" x="440.5" y="-70.7" font-family="Times,serif" font-size="11.00">Turtlebot.f/hf=turtlebot_fh=h_identity</text>
<polyline fill="none" stroke="black" points="555,-55.5 555,-91.5 "/>
<text text-anchor="middle" x="569.5" y="-70.7" font-family="Times,serif" font-size="11.00">xk</text>
<polyline fill="none" stroke="black" points="584,-55.5 584,-91.5 "/>
<text text-anchor="middle" x="598.5" y="-70.7" font-family="Times,serif" font-size="11.00">yk</text>
</g>
<!-- N0&#45;&gt;N1 -->
<g id="edge1" class="edge">
<title>N0&#45;&gt;N1</title>
<path fill="none" stroke="black" d="M238.47,-55.02C263.3,-57.01 289.81,-59.14 315.68,-61.22"/>
<polygon fill="black" stroke="black" points="315.7,-64.73 325.94,-62.05 316.26,-57.76 315.7,-64.73"/>
<text text-anchor="middle" x="282" y="-62.5" font-family="Times,serif" font-size="10.00">uk × 1001</text>
</g>
<!-- N2 -->
<g id="node3" class="node">
<title>N2</title>
<path fill="white" stroke="black" d="M403.5,-0.5C403.5,-0.5 535.5,-0.5 535.5,-0.5 541.5,-0.5 547.5,-6.5 547.5,-12.5 547.5,-12.5 547.5,-24.5 547.5,-24.5 547.5,-30.5 541.5,-36.5 535.5,-36.5 535.5,-36.5 403.5,-36.5 403.5,-36.5 397.5,-36.5 391.5,-30.5 391.5,-24.5 391.5,-24.5 391.5,-12.5 391.5,-12.5 391.5,-6.5 397.5,-0.5 403.5,-0.5"/>
<text text-anchor="middle" x="441.5" y="-15.7" font-family="Times,serif" font-size="11.00">IMU.hh=imu_h</text>
<polyline fill="none" stroke="black" points="491.5,-0.5 491.5,-36.5 "/>
<text text-anchor="middle" x="519.5" y="-15.7" font-family="Times,serif" font-size="11.00">yk_imu</text>
</g>
<!-- N0&#45;&gt;N2 -->
<g id="edge2" class="edge">
<title>N0&#45;&gt;N2</title>
<path fill="none" stroke="black" d="M238.47,-36.32C285.24,-32.7 338,-28.61 381.18,-25.27"/>
<polygon fill="black" stroke="black" points="381.67,-28.74 391.37,-24.48 381.13,-21.76 381.67,-28.74"/>
<text text-anchor="middle" x="282" y="-36.5" font-family="Times,serif" font-size="10.00">uk × 1001</text>
</g>
</g>
</svg>
