<?xml version="1.0" encoding="UTF-8" standalone="no"?>
<!DOCTYPE svg PUBLIC "-//W3C//DTD SVG 1.1//EN"
 "http://www.w3.org/Graphics/SVG/1.1/DTD/svg11.dtd">
<!-- Generated by graphviz version 2.43.0 (0)
 -->
<!-- Title: MetaF Pages: 1 -->
<svg width="403pt" height="69pt"
 viewBox="0.00 0.00 403.00 69.00" xmlns="http://www.w3.org/2000/svg" xmlns:xlink="http://www.w3.org/1999/xlink">
<g id="graph0" class="graph" transform="scale(1 1) rotate(0) translate(4 65)">
<title>MetaF</title>
<polygon fill="white" stroke="transparent" points="-4,4 -4,-65 399,-65 399,4 -4,4"/>
<!-- n1 -->
<g id="node1" class="node">
<title>n1</title>
<path fill="white" stroke="black" d="M12,-0.5C12,-0.5 157,-0.5 157,-0.5 163,-0.5 169,-6.5 169,-12.5 169,-12.5 169,-48.5 169,-48.5 169,-54.5 163,-60.5 157,-60.5 157,-60.5 12,-60.5 12,-60.5 6,-60.5 0,-54.5 0,-48.5 0,-48.5 0,-12.5 0,-12.5 0,-6.5 6,-0.5 12,-0.5"/>
<text text-anchor="middle" x="41" y="-33.7" font-family="Times,serif" font-size="11.00">DSBlock</text>
<text text-anchor="middle" x="41" y="-21.7" font-family="Times,serif" font-size="11.00">t=0, dt=0.1</text>
<polyline fill="none" stroke="black" points="82,-0.5 82,-60.5 "/>
<text text-anchor="middle" x="102.5" y="-47.7" font-family="Times,serif" font-size="11.00">in_t</text>
<polyline fill="none" stroke="black" points="82,-40.5 123,-40.5 "/>
<text text-anchor="middle" x="102.5" y="-27.7" font-family="Times,serif" font-size="11.00">in:v</text>
<polyline fill="none" stroke="black" points="82,-20.5 123,-20.5 "/>
<text text-anchor="middle" x="102.5" y="-7.7" font-family="Times,serif" font-size="11.00">in:w</text>
<polyline fill="none" stroke="black" points="123,-0.5 123,-60.5 "/>
<text text-anchor="middle" x="146" y="-27.7" font-family="Times,serif" font-size="11.00">out_y</text>
</g>
<!-- n2 -->
<g id="node2" class="node">
<title>n2</title>
<path fill="white" stroke="black" d="M235,-0.5C235,-0.5 383,-0.5 383,-0.5 389,-0.5 395,-6.5 395,-12.5 395,-12.5 395,-48.5 395,-48.5 395,-54.5 389,-60.5 383,-60.5 383,-60.5 235,-60.5 235,-60.5 229,-60.5 223,-54.5 223,-48.5 223,-48.5 223,-12.5 223,-12.5 223,-6.5 229,-0.5 235,-0.5"/>
<text text-anchor="middle" x="264" y="-33.7" font-family="Times,serif" font-size="11.00">DSBlock</text>
<text text-anchor="middle" x="264" y="-21.7" font-family="Times,serif" font-size="11.00">t=0, dt=0.1</text>
<polyline fill="none" stroke="black" points="305,-0.5 305,-60.5 "/>
<text text-anchor="middle" x="327" y="-47.7" font-family="Times,serif" font-size="11.00">in_t</text>
<polyline fill="none" stroke="black" points="305,-40.5 349,-40.5 "/>
<text text-anchor="middle" x="327" y="-27.7" font-family="Times,serif" font-size="11.00">in_x</text>
<polyline fill="none" stroke="black" points="305,-20.5 349,-20.5 "/>
<text text-anchor="middle" x="327" y="-7.7" font-family="Times,serif" font-size="11.00">in:uk</text>
<polyline fill="none" stroke="black" points="349,-0.5 349,-60.5 "/>
<text text-anchor="middle" x="372" y="-42.7" font-family="Times,serif" font-size="11.00">out_x</text>
<polyline fill="none" stroke="black" points="349,-30.5 395,-30.5 "/>
<text text-anchor="middle" x="372" y="-12.7" font-family="Times,serif" font-size="11.00">out_y</text>
</g>
<!-- n1&#45;&gt;n2 -->
<g id="edge1" class="edge">
<title>n1:out_y&#45;&gt;n2:uk</title>
<path fill="none" stroke="black" d="M169,-30.5C183.12,-30.5 198.04,-30.5 212.67,-30.5"/>
<polygon fill="black" stroke="black" points="212.74,-34 222.74,-30.5 212.74,-27 212.74,-34"/>
<text text-anchor="middle" x="196" y="-34.3" font-family="Times,serif" font-size="14.00">uk</text>
</g>
</g>
</svg>
